<svg xmlns="http://www.w3.org/2000/svg" viewBox="0 0 64.42 307.15"><defs><style>.cls-1,.cls-2{fill:none;stroke:#1d1d1b;stroke-miterlimit:10;}.cls-1{stroke-width:1.5px;}.cls-2{stroke-width:2.5px;}.cls-3{font-size:13px;fill:#1d1d1b;font-family:Asap-Regular, Asap;}</style></defs><title>Element 9mdpi</title><g id="Ebene_2" data-name="Ebene 2"><g id="Ebene_2-2" data-name="Ebene 2"><line class="cls-1" x1="28.39" y1="306.4" x2="64.42" y2="306.4"/><line class="cls-2" x1="46.41" y1="7.18" x2="46.41" y2="279.2"/><line class="cls-1" x1="28.39" y1="34.39" x2="64.42" y2="34.39"/><line class="cls-1" x1="28.39" y1="279.2" x2="64.42" y2="279.2"/><line class="cls-1" x1="28.39" y1="252" x2="64.42" y2="252"/><line class="cls-1" x1="28.39" y1="61.59" x2="64.42" y2="61.59"/><line class="cls-1" x1="28.39" y1="88.79" x2="64.42" y2="88.79"/><line class="cls-1" x1="28.39" y1="115.99" x2="64.42" y2="115.99"/><line class="cls-1" x1="28.39" y1="143.19" x2="64.42" y2="143.19"/><line class="cls-1" x1="28.39" y1="170.39" x2="64.42" y2="170.39"/><line class="cls-1" x1="28.39" y1="197.6" x2="64.42" y2="197.6"/><line class="cls-1" x1="28.39" y1="224.8" x2="64.42" y2="224.8"/><line class="cls-1" x1="28.39" y1="7.18" x2="64.42" y2="7.18"/><text class="cls-3" transform="translate(6.95 255.67)">10</text><text class="cls-3" transform="translate(14.03 282.86)">0</text><text class="cls-3" transform="translate(6.95 228.56)">20</text><text class="cls-3" transform="translate(6.95 201.46)">30</text><text class="cls-3" transform="translate(6.95 174.23)">40</text><text class="cls-3" transform="translate(6.95 147.01)">50</text><text class="cls-3" transform="translate(6.95 119.79)">60</text><text class="cls-3" transform="translate(6.96 92.57)">70</text><text class="cls-3" transform="translate(6.96 65.34)">80</text><text class="cls-3" transform="translate(6.96 38.32)">90</text><text class="cls-3" transform="translate(0 11.05)">100</text></g></g></svg>