<svg xmlns="http://www.w3.org/2000/svg" viewBox="0 0 51.64 318.11"><defs><style>.cls-1,.cls-2,.cls-5{fill:none;stroke-miterlimit:10;}.cls-1,.cls-2{stroke:#1d1d1b;}.cls-1{stroke-width:2.5px;}.cls-2{stroke-width:1.5px;}.cls-3{font-size:13px;fill:#1d1d1b;font-family:Asap-Regular, Asap;}.cls-4{fill:#d68016;}.cls-5{stroke:#25a33c;stroke-width:4px;}.cls-6{fill:#25a33c;}</style></defs><title>Element 26pfeil</title><g id="Ebene_2" data-name="Ebene 2"><g id="Ebene_2-2" data-name="Ebene 2"><line class="cls-1" x1="33.62" y1="7.38" x2="33.62" y2="263.96"/><line class="cls-2" x1="15.61" y1="7.38" x2="51.64" y2="7.38"/><line class="cls-2" x1="15.61" y1="50.15" x2="51.64" y2="50.15"/><line class="cls-2" x1="15.61" y1="92.91" x2="51.64" y2="92.91"/><line class="cls-2" x1="15.61" y1="135.67" x2="51.64" y2="135.67"/><line class="cls-2" x1="15.61" y1="178.43" x2="51.64" y2="178.43"/><line class="cls-2" x1="15.61" y1="221.2" x2="51.64" y2="221.2"/><line class="cls-2" x1="15.61" y1="263.96" x2="51.64" y2="263.96"/><line class="cls-2" x1="15.61" y1="306.72" x2="51.64" y2="306.72"/><text class="cls-3" transform="translate(1.17 267.83) rotate(-0.23)">1</text><text class="cls-3" transform="translate(0.72 225.12) rotate(-0.23)">2</text><text class="cls-3" transform="translate(0.55 182.2) rotate(-0.23)">3</text><text class="cls-3" transform="translate(0.38 139.52) rotate(-0.23)">4</text><text class="cls-3" transform="translate(0.21 96.78) rotate(-0.23)">5</text><text class="cls-3" transform="translate(0.04 53.86) rotate(-0.23)">6</text><text class="cls-3" transform="translate(0.73 11.08) rotate(-0.23)">7</text><circle class="cls-4" cx="33.62" cy="306.72" r="11.39"/><line class="cls-5" x1="33.8" y1="289.02" x2="33.8" y2="176.19"/><polygon class="cls-6" points="33.8 147.95 50.06 187.74 33.8 178.3 17.54 187.74 33.8 147.95"/></g></g></svg>