<svg xmlns="http://www.w3.org/2000/svg" viewBox="0 0 57.62 315.21"><defs><style>.cls-1,.cls-2{fill:none;stroke:#1d1d1b;stroke-miterlimit:10;}.cls-1{stroke-width:1.5px;}.cls-2{stroke-width:2.5px;}.cls-3{font-size:13px;fill:#1d1d1b;font-family:Asap-Regular, Asap;}.cls-4{fill:#25a33c;}</style></defs><title>Element 23pfeil</title><g id="Ebene_2" data-name="Ebene 2"><g id="Ebene_2-2" data-name="Ebene 2"><line class="cls-1" x1="21.59" y1="314.46" x2="57.62" y2="314.46"/><line class="cls-2" x1="39.6" y1="6.62" x2="39.6" y2="283.67"/><line class="cls-1" x1="21.59" y1="37.4" x2="57.62" y2="37.4"/><line class="cls-1" x1="21.59" y1="283.67" x2="57.62" y2="283.67"/><line class="cls-1" x1="21.59" y1="68.19" x2="57.62" y2="68.19"/><line class="cls-1" x1="21.59" y1="98.97" x2="57.62" y2="98.97"/><line class="cls-1" x1="21.59" y1="129.75" x2="57.62" y2="129.75"/><line class="cls-1" x1="21.59" y1="160.54" x2="57.62" y2="160.54"/><line class="cls-1" x1="21.59" y1="191.32" x2="57.62" y2="191.32"/><line class="cls-1" x1="21.59" y1="222.11" x2="57.62" y2="222.11"/><line class="cls-1" x1="21.59" y1="252.89" x2="57.62" y2="252.89"/><line class="cls-1" x1="21.59" y1="6.62" x2="57.62" y2="6.62"/><text class="cls-3" transform="translate(6.35 287.14)">1</text><text class="cls-3" transform="translate(6.38 256.91)">2</text><text class="cls-3" transform="translate(6.1 225.83)">3</text><text class="cls-3" transform="translate(6.38 194.93)">4</text><text class="cls-3" transform="translate(6.38 164.3)">5</text><text class="cls-3" transform="translate(6.38 133.68)">6</text><text class="cls-3" transform="translate(6.39 102.49)">7</text><text class="cls-3" transform="translate(6.39 71.86)">8</text><text class="cls-3" transform="translate(6.39 41.15)">9</text><text class="cls-3" transform="translate(0 11.05)">10</text><circle class="cls-4" cx="39.6" cy="191.32" r="11.39"/></g></g></svg>